<svg version="1.0" xmlns="http://www.w3.org/2000/svg" width="128" height="128" viewBox="0 0 96 96"><path d="M28 11.1C15.1 16.2 3.9 20.7 3.3 21.2c-.8.6-1.3 3.4-1.3 6.9 0 5.4.2 5.9 3 7.6 2.6 1.5 3 2.3 3 6 0 4-.3 4.4-3.7 6-3.7 1.8-3.8 1.9-4.1 8-.3 5.9-.2 6.2 2.7 7.9 2.7 1.6 3 2.4 3.3 7.3.3 5.5.3 5.6 4.8 7.8C22.4 84.4 43.2 94 44 94c.5 0 7.4-2.9 15.2-6.4 7.9-3.5 17-7.6 20.3-9.1 3.3-1.4 7.9-3.5 10.3-4.6 4.3-1.9 5.4-4.2 2.7-5.3-2-.7-1.9-4.6.1-7.4 1.9-2.8.8-4.6-4.2-6.4-2.5-.9-3.4-1.8-3.4-3.5 0-1.9 1.1-2.8 5.5-4.8 5.4-2.3 7-4.7 4-5.9-2-.7-1.9-4.6.1-7.4 1.9-2.8.8-4.6-4.2-6.4-3.8-1.3-4.5-4-1.9-7.4.8-1 1.5-2.4 1.5-3 0-1.2-30.5-13-35.7-13.9-2-.3-9.8 2.2-26.3 8.6z"/></svg>