<?xml version="1.0" standalone="no"?>
<!DOCTYPE svg PUBLIC "-//W3C//DTD SVG 20010904//EN"
 "http://www.w3.org/TR/2001/REC-SVG-20010904/DTD/svg10.dtd">
<svg version="1.0" xmlns="http://www.w3.org/2000/svg"
 width="96.000000pt" height="96.000000pt" viewBox="0 0 96.000000 96.000000"
 preserveAspectRatio="xMidYMid meet">
<metadata>
Created by potrace 1.14, written by Peter Selinger 2001-2017
</metadata>
<g transform="translate(0.000000,96.000000) scale(0.100000,-0.100000)"
fill="#000000" stroke="none">
<path d="M280 849 c-129 -51 -241 -96 -247 -101 -8 -6 -13 -34 -13 -69 0 -54
2 -59 30 -76 26 -15 30 -23 30 -60 0 -40 -3 -44 -37 -60 -37 -18 -38 -19 -41
-80 -3 -59 -2 -62 27 -79 27 -16 30 -24 33 -73 3 -55 3 -56 48 -78 114 -57
322 -153 330 -153 5 0 74 29 152 64 79 35 170 76 203 91 33 14 79 35 103 46
43 19 54 42 27 53 -20 7 -19 46 1 74 19 28 8 46 -42 64 -25 9 -34 18 -34 35 0
19 11 28 55 48 54 23 70 47 40 59 -20 7 -19 46 1 74 19 28 8 46 -42 64 -38 13
-45 40 -19 74 8 10 15 24 15 30 0 12 -305 130 -357 139 -20 3 -98 -22 -263
-86z"/>
</g>
</svg>
